# xmcd
#
# Track frame offsets:
#	150
#	12250
#	32249
#	51913
#	67394
#	89215
#	103792
#	121532
#	137794
#	149473
#	169323
#	183008
#	204760
#	220055
#	233628
#
# Disc length: 3333 seconds
#
# Revision: 1
# Processed by: cddbd v1.5.2PL0 Copyright (c) Steve Scherf et al.
# Submitted via: EasyCDDAExtractor 16.0.6.1
#
DISCID=da0d030f
DTITLE=Η λεβεντιά της Κρήτης 2
DYEAR=2013
DGENRE=Κρητική
TTITLE0=Μανιάς Νίκος - Αμέτε με στην εκκλησιά [στ. ιδίου]
TTITLE1=Ψαραντώνης - Αφού είχες άλλον στην καρδιά [Στέλ. Φουσταλιέρης-Γιάν. Μπ
TTITLE1=ερνιδάκης]
TTITLE2=Γαργανουράκης Χαράλαμπος - Άστρα, μη με μαλώνετε [παρ., διασκ. ιδίου]
TTITLE3=Μπερνιδάκης Γιάννης - Όσο βαρούν τα σίδερα [μ. κ στ. Στέλιος Φουσταλιέ
TTITLE3=ρης]
TTITLE4=Μανιάς Νίκος - Στολίδι σ' έχει το χωριό μ. κ στ. ιδίου]
TTITLE5=Καλομοίρης Γιώργης - Μ' άνοιξες στο κορμί πληγές [μ. κ στ. ιδίου]
TTITLE6=Σταματογιαννάκης Γεράσιμος - Κορφιανός συρτός [παραδοσιακό]
TTITLE7=Καλομοίρης Γιώργης - Τσάκι τσάκι [μ. κ στ. ιδίου]
TTITLE8=Μανιάς Νίκος - Νυχτοπούλι κάθ' αργά [μ. κ στ. ιδίου]
TTITLE9=Γαργανουράκης Χαράλαμπος - Ο ναυαγός [μ. κ στ. ιδίου]
TTITLE10=Άνευ ερμηνευτού - Η Κρήτη των ονείρων [οργ., μ. Γιάννης Ξυλούρης]
TTITLE11=Ψαραντώνης - Δεν κελαηδεί μπλιό το πουλί [μ. κ στ. ιδίου]
TTITLE12=Μανουράς Μανώλης - Δεν τα λυγίζω τα φτερά [παραδ., στ. ιδίου]
TTITLE13=Σπύρος Σηφογιωργάκης - Ο φάρος [Σ. Σηφογιωργάκης-Γιάννης Μαρκογιαννάκ
TTITLE13=ης]
TTITLE14=Καραβίτης Αλέκος - Ας ήξευρα πού μένει αητός [μ. κ στ. ιδίου]
EXTD=
EXTT0=
EXTT1=
EXTT2=
EXTT3=
EXTT4=
EXTT5=
EXTT6=
EXTT7=
EXTT8=
EXTT9=
EXTT10=
EXTT11=
EXTT12=
EXTT13=
EXTT14=
PLAYORDER=
